<svg width="24" height="24" viewBox="0 0 24 24" fill="none" xmlns="http://www.w3.org/2000/svg">
<g id="eva:arrow-left-fill">
<path id="Vector" d="M13.54 17.9999C13.0667 18.0005 12.6076 17.8381 12.24 17.5399L7.14002 13.3299C6.94003 13.1707 6.77851 12.9685 6.6675 12.7382C6.55649 12.5079 6.49884 12.2556 6.49884 11.9999C6.49884 11.7443 6.55649 11.492 6.6675 11.2617C6.77851 11.0314 6.94003 10.8292 7.14002 10.6699L12.24 6.45995C12.5471 6.21394 12.917 6.05913 13.3078 6.01316C13.6985 5.9672 14.0943 6.03191 14.45 6.19995C14.7592 6.33623 15.0226 6.55862 15.2088 6.84057C15.395 7.12251 15.4961 7.45209 15.5 7.78995V16.2099C15.4961 16.5478 15.395 16.8774 15.2088 17.1593C15.0226 17.4413 14.7592 17.6637 14.45 17.7999C14.1642 17.9299 13.8541 17.9981 13.54 17.9999Z" fill="#181A18"/>
</g>
</svg>
