<svg width="24" height="24" viewBox="0 0 24 24" fill="none" xmlns="http://www.w3.org/2000/svg">
<g id="eva:arrow-right-fill">
<path id="Vector" d="M10.46 17.9999C10.146 17.9981 9.83587 17.9299 9.55 17.7999C9.24083 17.6637 8.97741 17.4413 8.79122 17.1593C8.60503 16.8774 8.50393 16.5478 8.5 16.2099V7.78995C8.50393 7.45209 8.60503 7.12251 8.79122 6.84057C8.97741 6.55862 9.24083 6.33623 9.55 6.19995C9.90574 6.03191 10.3015 5.9672 10.6923 6.01316C11.083 6.05913 11.453 6.21394 11.76 6.45995L16.86 10.6699C17.06 10.8292 17.2215 11.0314 17.3325 11.2617C17.4435 11.492 17.5012 11.7443 17.5012 11.9999C17.5012 12.2556 17.4435 12.5079 17.3325 12.7382C17.2215 12.9685 17.06 13.1707 16.86 13.3299L11.76 17.5399C11.3924 17.8381 10.9333 18.0005 10.46 17.9999Z" fill="#181A18"/>
</g>
</svg>
